# xmcd
#
# Track frame offsets: 
#        150
#        2597
#        11050
#        25179
#        34383
#        61896
#        74724
#        89775
#
# Disc length: 1376 seconds
#
# Revision: 1
# Processed by: cddbd v1.5.2PL0 Copyright (c) Steve Scherf et al.
# Submitted via: ExactAudioCopy v0.99pb5
#
DISCID=6a055e08
DTITLE=Various Artist - Jazz aux Champs Élysées 
DYEAR=2010
DGENRE=Jazz
TTITLE0=SDR Big Band - Indicatif
TTITLE1=The Blue Stars - Cherokee
TTITLE2=Stéphane Grapelli Quartet - You took advantage of me
TTITLE3=Blossom Dearie - Thou swell
TTITLE4=Donald Byrd and Bobby Jaspar Quartet - After you've gone
TTITLE5=Chet Baker and Caterina Valente - I'll remember april
TTITLE6=Austiran All Stars feat. Joe Zawinul - {unknown}
TTITLE7=The Delta Rythm Boys - Lover come back to me
EXTD=YEAR: 2010
EXTT0=
EXTT1=
EXTT2=
EXTT3=
EXTT4=
EXTT5=
EXTT6=
EXTT7=
PLAYORDER=
